<?xml version="1.0" encoding="UTF-8"?>
<!-- RevNav Logo v2c: 6-Point North Star -->
<!-- Classic nautical star, tilted for motion -->
<svg width="32" height="32" viewBox="0 0 32 32" fill="none" xmlns="http://www.w3.org/2000/svg">
    <!-- Container with 8° tilt -->
    <g transform="rotate(8, 16, 16)">
        <!-- Subtle open ring -->
        <path
            d="M 16 3
               A 13 13 0 1 1 27 21"
            stroke="#6366f1"
            stroke-width="1.5"
            stroke-linecap="round"
            fill="none"
            opacity="0.4"
        />

        <!-- 6-Point Star -->
        <!-- North (primary) -->
        <path d="M16 3 L17.5 13 L16 15 L14.5 13 Z" fill="#22d3ee"/>

        <!-- South -->
        <path d="M16 29 L14.5 19 L16 17 L17.5 19 Z" fill="#6366f1" opacity="0.5"/>

        <!-- Northeast -->
        <path d="M27 7.5 L18.5 14 L17 15.5 L17.5 13.5 Z" fill="#22d3ee" opacity="0.8"/>

        <!-- Northwest -->
        <path d="M5 7.5 L14.5 13.5 L15 15.5 L13.5 14 Z" fill="#6366f1" opacity="0.6"/>

        <!-- Southeast -->
        <path d="M27 24.5 L17.5 18.5 L17 16.5 L18.5 18 Z" fill="#22d3ee" opacity="0.6"/>

        <!-- Southwest -->
        <path d="M5 24.5 L13.5 18 L15 16.5 L14.5 18.5 Z" fill="#6366f1" opacity="0.4"/>

        <!-- Center point -->
        <circle cx="16" cy="16" r="1.5" fill="white"/>
    </g>
</svg>
